<?xml version="1.0" standalone="no"?><svg xmlns="http://www.w3.org/2000/svg" viewBox="0 0 1440 320"><path fill="#0099ff" fill-opacity="1" d="M0,192L34.3,208C68.6,224,137,256,206,234.7C274.3,213,343,139,411,101.3C480,64,549,64,617,74.7C685.7,85,754,107,823,96C891.4,85,960,43,1029,58.7C1097.1,75,1166,149,1234,170.7C1302.9,192,1371,160,1406,144L1440,128L1440,0L1405.7,0C1371.4,0,1303,0,1234,0C1165.7,0,1097,0,1029,0C960,0,891,0,823,0C754.3,0,686,0,617,0C548.6,0,480,0,411,0C342.9,0,274,0,206,0C137.1,0,69,0,34,0L0,0Z"></path></svg>